<svg width="400" height="500" viewBox="0 0 400 500" xmlns="http://www.w3.org/2000/svg">
  <!-- Transparent background (no rect fill) -->

  <!-- McRIB Icon -->
  <g transform="translate(0, 10)">
    <!-- Buns Top -->
    <path
      d="M20 100 C 20 20, 380 20, 380 100 L 380 140 L 20 140 Z"
      fill="#FBBF24"
      stroke="black"
      stroke-width="10"
    />
    <!-- Seeds -->
    <circle cx="100" cy="70" r="5" fill="#FEF3C7" />
    <circle cx="160" cy="50" r="5" fill="#FEF3C7" />
    <circle cx="250" cy="60" r="5" fill="#FEF3C7" />
    <circle cx="320" cy="80" r="5" fill="#FEF3C7" />
    <!-- Meat Patty -->
    <path
      d="M10 140 H 390 V 220 C 390 220, 380 250, 350 250 C 320 250, 320 220, 320 220 C 320 220, 310 250, 280 250 C 250 250, 250 220, 250 220 C 250 220, 240 250, 210 250 C 180 250, 180 220, 180 220 C 180 220, 170 250, 140 250 C 110 250, 110 220, 110 220 C 110 220, 100 250, 70 250 C 40 250, 10 220, 10 220 V 140 Z"
      fill="#7F1D1D"
      stroke="black"
      stroke-width="10"
    />
    <!-- Bun Bottom -->
    <path
      d="M20 230 H 380 V 260 C 380 290, 20 290, 20 260 V 230 Z"
      fill="#FBBF24"
      stroke="black"
      stroke-width="10"
    />
  </g>

  <!-- $MCRIB Text with shadow -->
  <!-- Shadow (offset and slightly transparent) -->
  <text x="204" y="454"
        text-anchor="middle"
        font-family="Arial, Helvetica, sans-serif"
        font-size="48"
        font-weight="900"
        font-style="italic"
        fill="black"
        letter-spacing="-2"
        opacity="0.3">
    $MCRIB
  </text>

  <!-- Main text -->
  <text x="200" y="450"
        text-anchor="middle"
        font-family="Arial, Helvetica, sans-serif"
        font-size="48"
        font-weight="900"
        font-style="italic"
        fill="white"
        letter-spacing="-2">
    $MCRIB
  </text>
</svg>
